<?xml version="1.0" encoding="utf-8"?>
<!-- Generator: Adobe Illustrator 22.0.1, SVG Export Plug-In . SVG Version: 6.00 Build 0)  -->
<svg version="1.1" id="圖層_1" xmlns="http://www.w3.org/2000/svg" xmlns:xlink="http://www.w3.org/1999/xlink" x="0px" y="0px"
	 viewBox="0 0 120 120" style="enable-background:new 0 0 120 120;" xml:space="preserve">
<style type="text/css">
	.st0{fill:#FBBE2A;}
	.st1{fill:#EA982D;}
	.st2{fill:#FEFDFD;}
	.st3{fill:#FEFCFC;}
</style>
<g>
	<path class="st0" d="M64.5,116.3c-5.4,0.6-10.8,0.2-16.1-1c-17.5-4.1-30.5-14.1-38.6-30.1C5.2,76.1,3.3,66.3,4.2,56
		c1.2-14.7,7.2-27,18-37C31,10.7,41.5,5.8,53.5,4.4C72,2.4,87.8,8,100.8,21.3c8.8,8.9,13.8,19.8,15.3,32.2c0.4,3.7,0.7,7.3,0.2,11
		c-0.3-0.3-0.7-0.6-1-0.9c-7.8-7.8-24.1-24-24.4-24.3c-0.8-1.1-2-1.4-3.2-1.4c-18.2,0-36.4,0-54.6,0c-0.8,0-1.5,0.1-2.2,0.5
		c-1.2,0.6-1.2,0.8-0.1,1.5c0,0.5,0.4,0.8,0.7,1.1c1.7,1.7,3.5,3.5,5.2,5.2c0.3,0.3,0.8,0.6,0.8,1.1c-2.8-1.6-5.8-3.3-8.7-4.9
		c0,0.6,0,0.9,0,1.3c0,11.5,0,23,0,34.5c0,1.9,0.7,3.3,2.4,4.2c0.1,0.6,0.5,0.8,0.9,1.2c10.6,10.6,21.1,21.1,31.7,31.7
		C63.9,115.5,64.1,115.9,64.5,116.3z"/>
	<path class="st1" d="M36.4,46.1c-1.7-1.7-3.4-3.5-5.1-5.2c-0.3-0.3-0.7-0.6-0.7-1.1c0.3,0.2,0.6,0.3,0.9,0.5
		c9.2,5.3,18.5,10.7,27.7,16c0.5,0.3,0.8,0.6,1.5,0.2c10-5.8,20-11.6,30-17.4c0.3,0.3,0.6,0.6,0.9,0.9c7.8,7.8,15.7,15.6,23.5,23.4
		c0.3,0.3,0.9,0.7,1.2,1c-0.6,5.3-1.6,10.4-3.6,15.3c-7.1,18-19.9,29.7-38.5,34.9c-3.3,0.9-6.9,1.3-9.9,1.7c-0.3-0.3-0.7-0.8-1-1.1
		c-10.3-10.4-20.9-21-31.4-31.6c-0.3-0.3-0.8-0.6-0.9-1.2c0.7,0.3,1.5,0.4,2.3,0.4c18,0,35.9,0,53.9,0c3.2,0,4.7-1.5,4.7-4.8
		c0-11.4,0-22.9,0-34.3c0-0.4,0-0.7,0-1.3c-0.6,0.3-1,0.6-1.5,0.8c-9.6,5.5-19.2,11.1-28.8,16.7c-1,0.6-1.8,0.6-2.8,0
		c-1.6-1-3.2-1.9-4.9-2.8c-5.4-3.2-10.8-6.3-16.3-9.5C37.4,47,36.7,46.4,36.4,46.1z"/>
	<path class="st2" d="M54,56.9c1.6,0.9,3.3,1.8,4.9,2.8c1,0.6,1.8,0.6,2.8,0c9.6-5.6,19.2-11.1,28.8-16.7c0.4-0.2,0.9-0.5,1.5-0.8
		c0,0.6,0,1,0,1.3c0,11.4,0,22.9,0,34.3c0,3.2-1.5,4.8-4.7,4.8c-18,0-35.9,0-53.9,0c-0.8,0-1.6-0.1-2.3-0.4
		c-1.7-0.9-2.4-2.3-2.4-4.2c0-11.5,0-23,0-34.5c0-0.3,0-0.7,0-1.3C31.7,43.9,48.5,53.7,54,56.9z"/>
	<path class="st3" d="M90.7,39.1c-10,5.8-20,11.6-29.9,17.4c-0.6,0.4-1,0-1.5-0.2c-9.2-5.3-18.5-10.7-27.7-16
		c-0.3-0.2-0.6-0.3-0.9-0.5c-1.1-0.7-1.1-0.9,0.1-1.5c0.7-0.3,1.4-0.5,2.2-0.5c18.2,0,36.4,0,54.6,0C88.8,37.8,89.9,38,90.7,39.1z"
		/>
</g>
</svg>
