<?xml version="1.0" encoding="utf-8"?>
<!-- Generator: Adobe Illustrator 22.0.1, SVG Export Plug-In . SVG Version: 6.00 Build 0)  -->
<svg version="1.1" id="圖層_1" xmlns="http://www.w3.org/2000/svg" xmlns:xlink="http://www.w3.org/1999/xlink" x="0px" y="0px"
	 viewBox="0 0 100 100" style="enable-background:new 0 0 100 100;" xml:space="preserve">
<style type="text/css">
	.st0{fill:#CC3E3E;}
	.st1{fill:#FEFDFD;}
	.st2{fill:#F05249;}
	.st3{fill:#AD0F0F;}
</style>
<g>
	<path class="st0" d="M99.5,57c-0.8,6.1-2.7,11.8-5.7,17.2C86.3,87.5,75.1,95.6,60.2,99c-1.1,0.2-2.2,0.4-3.3,0.6
		c-0.7,0-1.2-0.2-1.7-0.7c-8.5-8.5-25.7-26.3-25.7-26.3s0.4,0.3,0.6,0.5c3.2,3.1,6.8,3,9.6,0c3.1-3.3,6.5-6.4,9.7-9.6
		c0.5-0.5,0.8-0.5,1.4,0c3.3,3.3,6.6,6.6,10,9.9c2.8,2.8,6.2,2.8,9,0c1.2-1.2,2.4-2.4,3.7-3.7c2.9-2.9,2.9-6.3,0-9.2
		c-3.2-3.2-6.4-6.4-9.7-9.6c-0.6-0.6-0.7-0.9,0-1.6c3.3-3.2,6.5-6.4,9.8-9.7c0.5-0.5,1-1.1,1.4-1.7c1.1-2.2,0.9-4.3-0.4-6.4
		c0.4-0.1,0.6,0.3,0.9,0.5C83.2,40,91,47.9,98.9,55.8C99.3,56.1,99.5,56.5,99.5,57z"/>
	<path class="st1" d="M74.4,31.6c1.2,2.1,1.5,4.2,0.4,6.4c-0.3,0.7-0.9,1.2-1.4,1.7c-3.3,3.2-6.5,6.5-9.8,9.7c-0.7,0.7-0.6,1,0,1.6
		c3.3,3.2,6.5,6.4,9.7,9.6c2.9,2.9,2.9,6.3,0,9.2c-1.2,1.2-2.4,2.4-3.7,3.7c-2.8,2.8-6.2,2.8-9,0c-3.3-3.3-6.7-6.6-10-9.9
		c-0.5-0.5-0.8-0.6-1.4,0c-3.2,3.2-6.5,6.3-9.7,9.6c-2.8,3-6.6,2.9-9.6,0c-0.2-0.2-0.4-0.4-0.6-0.5c-1-1-2-2-2.9-3
		c-2.5-2.6-2.5-6.1,0-8.6c3.4-3.4,6.7-6.8,10.1-10.1c0.5-0.5,0.6-0.8,0-1.4c-3.3-3.3-6.6-6.6-9.9-9.9c-2.8-2.8-2.8-6.3,0-9.1
		c1.3-1.3,2.5-2.5,3.8-3.8c2.7-2.6,6.2-2.7,8.8,0c3.3,3.3,6.7,6.7,9.9,10.1c0.6,0.6,0.9,0.6,1.5,0c3.2-3.3,6.5-6.5,9.7-9.7
		c2.8-2.8,6.3-2.8,9.1,0c0.9,0.8,1.7,1.7,2.6,2.5c0.5,0.5,1,1,1.5,1.6c0,0,0,0,0,0c0.1,0.1,0.1,0.1,0.2,0.2c0,0,0,0,0,0
		c0,0.1,0.1,0.2,0.2,0.2c0,0,0,0,0,0C74.3,31.6,74.3,31.7,74.4,31.6L74.4,31.6z"/>
	<path class="st2" d="M72.3,29.5c0.7,0.3,1.3,0.8,1.5,1.6"/>
	<path class="st3" d="M74.1,31.2C74,31.2,74,31.1,73.9,31C74,31.1,74,31.2,74.1,31.2z"/>
	<path class="st3" d="M74.1,31.2c0.1,0.1,0.1,0.1,0.2,0.2"/>
	<path class="st2" d="M99.5,43C96,22.8,84.6,8.9,65.1,2.6c-18.3-5.9-35-1.8-49.2,11.2C6.7,22.2,1.6,32.8,0.4,45.1
		C-1,59.9,3.3,73,13.4,84c7.7,8.5,17.4,13.5,28.7,15.5c1.4,0.2,9.5,1,14.9,0.1c-0.7,0-1.2-0.2-1.7-0.7c-8.5-8.5-15.5-16.1-24-24.6
		c-0.2-0.2-1.7-1.7-1.7-1.7s-2-2-2.9-3c-2.5-2.6-2.5-6.1,0-8.6c3.4-3.4,6.7-6.8,10.1-10.1c0.5-0.5,0.6-0.8,0-1.4
		c-3.3-3.3-6.6-6.6-9.9-9.9c-2.8-2.8-2.8-6.3,0-9.1c1.3-1.3,2.5-2.5,3.8-3.8c2.7-2.6,6.2-2.7,8.8,0c3.3,3.3,6.7,6.7,9.9,10.1
		c0.6,0.6,0.9,0.6,1.5,0c3.2-3.3,6.5-6.5,9.7-9.7c2.8-2.8,6.3-2.8,9.1,0c0.4,0.4,0.8,0.8,1.2,1.2l3.5,3.5c0,0,0.2,0,0.3,0
		c0.2,0.1,0.4,0.3,0.5,0.5C83.2,40,91,47.9,98.9,55.8c0.4,0.4,0.6,0.7,0.6,1.3C99.9,55.6,100.3,47.7,99.5,43z"/>
</g>
</svg>
