<?xml version="1.0" encoding="utf-8"?>
<!-- Generator: Adobe Illustrator 22.0.1, SVG Export Plug-In . SVG Version: 6.00 Build 0)  -->
<svg version="1.1" id="圖層_1" xmlns="http://www.w3.org/2000/svg" xmlns:xlink="http://www.w3.org/1999/xlink" x="0px" y="0px"
	 viewBox="0 0 120 120" style="enable-background:new 0 0 120 120;" xml:space="preserve">
<style type="text/css">
	.st0{fill:#0D3F60;}
	.st1{fill:#FBBE2A;}
	.st2{fill:#FCFCFC;}
	.st3{fill:#FDFBF7;}
</style>
<g>
	<path class="st0" d="M77.4,78.6c0,10.7-0.1,21.4,0.1,32.1c0.1,4.1-1.3,7-5.3,8.3c-19.4,0-38.9,0-58.3,0c0-0.1-0.1-0.2-0.1-0.2
		c-3.7-1.4-5-3.3-5-7.1c0-5.7,0-11.5,0-17.2c0-26.9,0-53.8,0-80.6c0-2.1,0-4.1,0-6.2c0-2.2,1.1-3.8,2.9-5.1c0.7-0.5,1.6-0.7,2.4-1.1
		c19.4,0,38.7,0,58.1,0c0.7,0.4,1.6,0.6,2.3,1.1c1.9,1.4,2.9,3.3,2.9,5.6c0,6.9,0,13.8,0,20.7c-1.1,0-2.3,0-3.4,0
		c0-5.1,0-10.2,0-15.3c0-0.8-0.1-1.2-1.1-1.2c-19.9,0-39.7,0-59.6,0c-0.8,0-1.1,0.1-1.1,1c0,27,0,54.1,0,81.1c0,1,0.3,1.1,1.2,1.1
		c6.7,0,13.3,0,20,0c13.2,0,26.3,0,39.5,0c0.9,0,1.2-0.2,1.2-1.1c-0.1-4.7,0-9.4,0-14.1C75,79.8,75.8,78.5,77.4,78.6z M47.9,108.5
		c1.9,0,3.8,0,5.7,0c0.8,0,1.4-0.2,1.5-1.1c0-0.9-0.6-1.2-1.4-1.2c-3.8,0-7.5,0-11.3,0c-0.8,0-1.5,0.3-1.5,1.2
		c0,0.9,0.7,1.1,1.4,1.1C44.2,108.5,46.1,108.5,47.9,108.5z M32.9,108.5c0.5,0,0.9,0,1.2,0c0.7,0,1.2-0.4,1.2-1.1
		c0-0.7-0.5-1.1-1.2-1.2c-0.3,0-0.7,0-1,0c-0.9,0-2-0.2-2.1,1.2C31,108.7,32.2,108.4,32.9,108.5z"/>
	<path class="st1" d="M74,28.9c1.1,0,2.3,0,3.4,0c6.5,0,13,0,19.5,0c7,0,12.8,4.6,14.4,11.3c0.3,1.1,0.4,2.3,0.4,3.4
		c0,6.7,0,13.4,0,20.1c0,8.3-6.5,14.8-14.9,14.8c-6.5,0-12.9,0-19.4,0c-1.6-0.1-2.4,1.2-3.5,1.9c-2.9,2-5.7,3.9-8.6,5.9
		c-2.1,1.5-4.2,3-6.3,4.4c-1.9,1.3-3.2,0.7-3.8-1.4c-0.9-3.3-1.7-6.6-2.6-10c-0.2-0.6-0.3-1-1.1-1.1c-7.1-0.9-12.6-7-12.6-14.1
		c-0.1-7.1,0-14.1,0-21.2c0-2.9,0.9-5.5,2.6-7.8c3-4.1,7-6.3,12.1-6.3C60.4,29,67.2,29,74,28.9z M81.9,51.7c0.3,0.5,0.2,0.9,0.2,1.2
		c0,2.8,0,5.6,0,8.4c0,0.8,0.2,1.6,1.2,1.6c0.9,0,1.2-0.7,1.2-1.5c0-4.6,0-9.3,0-13.9c0-0.7-0.1-1.4-1-1.6c-0.8-0.2-1.2,0.4-1.5,1
		c-1.3,2.2-2.6,4.4-3.8,6.6c-0.9,1.6-1.9,3.3-2.9,5c-1-1.8-1.9-3.3-2.9-4.9c-1.4-2.3-2.7-4.7-4.1-7c-0.3-0.5-0.7-0.8-1.3-0.7
		c-0.7,0.1-0.9,0.6-1,1.3c0,0.2,0,0.4,0,0.6c0,4.5,0,8.9,0,13.4c0,0.4,0,0.8,0.2,1.1c0.2,0.5,0.6,0.7,1.1,0.7c0.5,0,0.8-0.3,1-0.7
		c0.2-0.4,0.2-0.8,0.2-1.2c0-2.8,0-5.6,0-8.4c0-0.3-0.2-0.6,0.3-0.8c1.8,3.1,3.5,6.2,5.3,9.2c0.8,1.3,1.7,1.4,2.5,0
		c1.1-1.8,2.1-3.7,3.2-5.6C80.4,54.3,81.1,53,81.9,51.7z M100.7,50.1c-0.2-2-1.1-3.5-2.9-4.3c-1.8-0.9-3.7-0.7-5.3,0.5
		c-1.6,1.2-2.4,2.9-2,4.9c0.4,2.6,2.2,4.1,5.2,4.4c1.6,0.2,2.6,1.1,2.7,2.5c0.2,1.6-0.9,2.9-2.4,3.1c-1.7,0.2-3-0.7-3.3-2.7
		c-0.1-0.8-0.5-1.3-1.3-1.2c-0.8,0.1-1.1,0.8-1,1.6c0.2,2.6,2.5,4.7,5.1,4.7c2.4,0.1,4.7-1.8,5.2-4.2c0.5-2.6-1-5.2-3.6-5.9
		c-0.7-0.2-1.4-0.2-2-0.3c-1.5-0.3-2.6-1.8-2.3-3.3c0.3-1.4,1.4-2.3,2.9-2.3c1.5,0,2.5,1,2.8,2.5c0.1,0.8,0.4,1.5,1.3,1.4
		C100.5,51.4,100.7,50.8,100.7,50.1z M55,44.6c-2.8,0-5,2.1-5.2,4.8c-0.1,3.1,1.9,5.3,5,5.5c1.8,0.1,3,1.3,3,2.9
		c0,1.4-1.2,2.7-2.7,2.8c-1.5,0.2-2.8-0.9-3-2.6c-0.1-0.8-0.5-1.5-1.4-1.3c-0.9,0.1-1,0.8-0.9,1.6c0.1,2.5,2.4,4.7,5,4.7
		c2.8,0,5.1-2.2,5.3-5c0.1-2.6-2-5.1-4.6-5.3c-0.5-0.1-1.1-0.1-1.6-0.2c-1.3-0.4-2.1-1.8-1.8-3.2c0.2-1.3,1.4-2.3,2.7-2.3
		c1.6,0,2.6,0.9,2.9,2.8c0.2,0.8,0.5,1.3,1.4,1.1c0.8-0.1,1-0.8,0.9-1.5C59.9,46.7,57.7,44.6,55,44.6z"/>
	<path class="st2" d="M74,28.9c-6.8,0-13.5,0-20.3,0c-5.1,0-9.1,2.2-12.1,6.3c-1.7,2.3-2.6,4.9-2.6,7.8c0,7.1-0.1,14.1,0,21.2
		c0.1,7.1,5.6,13.2,12.6,14.1c0.7,0.1,0.9,0.5,1.1,1.1c0.9,3.3,1.7,6.6,2.6,10c0.6,2.2,1.9,2.7,3.8,1.4c2.1-1.4,4.2-2.9,6.3-4.4
		c2.9-2,5.7-3.9,8.6-5.9c0,4.7,0,9.4,0,14.1c0,0.9-0.3,1.1-1.2,1.1c-13.2,0-26.3,0-39.5,0c-6.7,0-13.3,0-20,0
		c-0.8,0-1.2-0.1-1.2-1.1c0-27,0-54.1,0-81.1c0-0.9,0.3-1,1.1-1c19.9,0,39.7,0,59.6,0c1,0,1.1,0.3,1.1,1.2
		C73.9,18.8,74,23.9,74,28.9z"/>
	<path class="st3" d="M47.9,108.5c-1.9,0-3.7,0-5.6,0c-0.8,0-1.4-0.2-1.4-1.1c0-0.9,0.6-1.2,1.5-1.2c3.8,0,7.5,0,11.3,0
		c0.8,0,1.5,0.3,1.4,1.2c0,0.8-0.7,1.1-1.5,1.1C51.8,108.5,49.9,108.5,47.9,108.5z"/>
	<path class="st3" d="M32.9,108.5c-0.7,0-1.9,0.3-1.9-1.1c0-1.4,1.2-1.1,2.1-1.2c0.3,0,0.7,0,1,0c0.7,0.1,1.2,0.4,1.2,1.2
		c0,0.7-0.4,1.1-1.2,1.1C33.8,108.5,33.4,108.5,32.9,108.5z"/>
	<path class="st3" d="M81.9,51.7c-0.8,1.3-1.5,2.6-2.2,3.8c-1.1,1.9-2.1,3.7-3.2,5.6c-0.8,1.3-1.7,1.3-2.5,0
		c-1.8-3.1-3.6-6.1-5.3-9.2c-0.4,0.2-0.3,0.6-0.3,0.8c0,2.8,0,5.6,0,8.4c0,0.4,0,0.8-0.2,1.2c-0.2,0.4-0.5,0.7-1,0.7
		c-0.5,0-0.9-0.2-1.1-0.7c-0.1-0.4-0.2-0.7-0.2-1.1c0-4.5,0-8.9,0-13.4c0-0.2,0-0.4,0-0.6c0-0.6,0.3-1.1,1-1.3
		c0.6-0.1,1,0.2,1.3,0.7c1.4,2.3,2.7,4.7,4.1,7c0.9,1.6,1.8,3.2,2.9,4.9c1-1.8,2-3.4,2.9-5c1.3-2.2,2.6-4.4,3.8-6.6
		c0.3-0.6,0.7-1.2,1.5-1c0.9,0.2,1,0.9,1,1.6c0,4.6,0,9.3,0,13.9c0,0.8-0.2,1.5-1.2,1.5c-1,0-1.2-0.8-1.2-1.6c0-2.8,0-5.6,0-8.4
		C82.1,52.6,82.2,52.2,81.9,51.7z"/>
	<path class="st3" d="M100.7,50.1c0,0.8-0.2,1.3-1,1.4c-0.9,0.1-1.2-0.6-1.3-1.4c-0.2-1.6-1.3-2.5-2.8-2.5c-1.4,0-2.5,0.9-2.9,2.3
		c-0.3,1.5,0.7,3,2.3,3.3c0.7,0.1,1.4,0.1,2,0.3c2.5,0.7,4,3.3,3.6,5.9c-0.4,2.4-2.7,4.3-5.2,4.2c-2.6-0.1-4.8-2.2-5.1-4.7
		c-0.1-0.8,0.2-1.4,1-1.6c0.8-0.1,1.2,0.4,1.3,1.2c0.3,1.9,1.6,2.9,3.3,2.7c1.5-0.2,2.5-1.5,2.4-3.1c-0.1-1.4-1.1-2.3-2.7-2.5
		c-3-0.3-4.8-1.8-5.2-4.4c-0.3-2,0.4-3.7,2-4.9c1.6-1.2,3.5-1.4,5.3-0.5C99.6,46.6,100.5,48.1,100.7,50.1z"/>
	<path class="st3" d="M55,44.6c2.7,0,4.9,2.1,5.1,4.7c0.1,0.7-0.1,1.3-0.9,1.5c-0.8,0.2-1.2-0.3-1.4-1.1c-0.4-1.9-1.3-2.8-2.9-2.8
		c-1.4,0-2.5,1-2.7,2.3C52,50.6,52.7,52,54,52.4c0.5,0.2,1,0.2,1.6,0.2c2.6,0.3,4.7,2.7,4.6,5.3c-0.1,2.8-2.5,5-5.3,5
		c-2.6,0-4.9-2.2-5-4.7c0-0.8,0.1-1.5,0.9-1.6c0.9-0.1,1.2,0.5,1.4,1.3c0.3,1.7,1.5,2.8,3,2.6c1.5-0.2,2.6-1.4,2.7-2.8
		c0-1.6-1.2-2.7-3-2.9c-3.1-0.2-5.2-2.5-5-5.5C50,46.7,52.3,44.6,55,44.6z"/>
</g>
</svg>
